<?xml version="1.0" encoding="UTF-8" standalone="no"?>
<!DOCTYPE svg PUBLIC "-//W3C//DTD SVG 1.1//EN" "http://www.w3.org/Graphics/SVG/1.1/DTD/svg11.dtd">
<svg width="100%" height="100%" viewBox="0 0 1182 1182" version="1.1" xmlns="http://www.w3.org/2000/svg" xmlns:xlink="http://www.w3.org/1999/xlink" xml:space="preserve" xmlns:serif="http://www.serif.com/" style="fill-rule:evenodd;clip-rule:evenodd;stroke-linejoin:round;stroke-miterlimit:2;">
    <g transform="matrix(0.835747,0,0,0.835747,97,97)">
        <g transform="matrix(1218.96,4.60585e-16,4.60585e-16,1226.48,-6.12988,1058.45)">
            <path d="M0.823,-0.068C0.822,-0.063 0.822,-0.057 0.821,-0.052C0.817,-0.027 0.807,-0.024 0.78,-0.023C0.75,-0.022 0.729,-0.022 0.701,-0.022L0.733,-0.032L0.736,-0.041C0.728,-0.074 0.714,-0.119 0.699,-0.148L0.691,-0.152L0.63,-0.136L0.626,-0.129C0.637,-0.101 0.649,-0.055 0.657,-0.014L0.666,-0.011L0.694,-0.02L0.738,0.086C0.743,0.097 0.746,0.1 0.758,0.1L0.798,0.1C0.849,0.1 0.889,0.088 0.912,0.06C0.932,0.035 0.944,0.008 0.95,-0.065C0.954,-0.115 0.953,-0.185 0.953,-0.262L0.945,-0.269L0.833,-0.267L0.584,-0.267L0.584,-0.3L0.83,-0.3L0.962,-0.297L0.968,-0.302L0.968,-0.391L0.962,-0.396L0.83,-0.393L0.584,-0.393L0.584,-0.425L0.776,-0.425L0.883,-0.422L0.892,-0.429L0.889,-0.537L0.889,-0.644L0.892,-0.751L0.884,-0.759L0.766,-0.756L0.716,-0.756C0.727,-0.779 0.737,-0.803 0.747,-0.83L0.744,-0.841L0.617,-0.863L0.608,-0.859C0.601,-0.824 0.594,-0.791 0.584,-0.756L0.582,-0.756L0.462,-0.759L0.455,-0.752L0.458,-0.629L0.458,-0.319L0.43,-0.333C0.429,-0.229 0.427,-0.224 0.411,-0.224C0.402,-0.224 0.401,-0.226 0.401,-0.245L0.404,-0.552L0.408,-0.67L0.4,-0.676L0.302,-0.673L0.239,-0.673L0.239,-0.833L0.232,-0.841L0.12,-0.845L0.113,-0.839L0.113,-0.674L0.036,-0.676L0.032,-0.669L0.032,-0.553L0.037,-0.548L0.113,-0.55C0.113,-0.31 0.084,-0.208 0.011,-0.115L0.091,-0.021C0.096,-0.015 0.1,-0.013 0.105,-0.013C0.109,-0.013 0.114,-0.016 0.117,-0.021C0.212,-0.156 0.239,-0.276 0.239,-0.544L0.239,-0.551L0.281,-0.551L0.279,-0.419L0.274,-0.223C0.274,-0.124 0.296,-0.103 0.379,-0.103L0.395,-0.103C0.388,-0.061 0.377,-0.022 0.361,0.017L0.365,0.024L0.462,0.061L0.471,0.058C0.49,0.009 0.503,-0.053 0.51,-0.12L0.504,-0.127L0.483,-0.133L0.485,-0.135C0.493,-0.144 0.499,-0.154 0.503,-0.169L0.582,-0.171L0.825,-0.171C0.825,-0.139 0.825,-0.112 0.824,-0.086C0.816,-0.112 0.805,-0.141 0.793,-0.163L0.785,-0.167L0.728,-0.149L0.725,-0.14C0.737,-0.117 0.747,-0.087 0.758,-0.05L0.766,-0.047L0.823,-0.068ZM0.759,-0.633L0.584,-0.633L0.584,-0.668L0.759,-0.668L0.759,-0.633ZM0.759,-0.548L0.759,-0.512L0.584,-0.512L0.584,-0.548L0.759,-0.548ZM0.524,-0.124L0.519,-0.117C0.528,-0.075 0.538,-0.024 0.543,0.028L0.551,0.032L0.628,0.007L0.633,0C0.628,-0.04 0.618,-0.091 0.604,-0.137L0.597,-0.142L0.524,-0.124Z" style="fill:white;fill-rule:nonzero;stroke:white;stroke-width:0.1px;"/>
        </g>
        <g transform="matrix(7.04066e-17,1.14983,-1.14278,6.99748e-17,1278.22,-111.17)">
            <clipPath id="_clip1">
                <path d="M944.685,246.018C950.018,247.085 956.418,247.085 961.751,248.151C988.418,252.418 991.618,263.085 992.685,291.885C993.751,323.885 993.751,346.285 993.751,376.151L983.085,342.018L973.485,338.818C938.285,347.351 890.285,362.285 859.351,378.285L855.085,386.818L872.151,451.885L879.618,456.151C909.485,444.418 958.551,431.618 1002.28,423.085L1005.49,413.485L995.885,383.618L1108.95,336.685C1120.68,331.351 1123.88,328.151 1123.88,315.351L1123.88,272.685C1123.88,218.285 1111.09,175.618 1081.22,151.085C1054.55,129.751 1025.75,116.951 947.885,110.551C894.551,106.285 819.885,107.351 737.751,107.351L730.285,115.885L732.418,235.351L732.418,500.951L697.218,500.951L697.218,238.551L700.418,97.751L695.085,91.351L600.151,91.351L594.818,97.751L598.018,238.551L598.018,500.951L563.885,500.951L563.885,296.151L567.085,182.018L559.618,172.418L444.418,175.618L330.285,175.618L216.151,172.418L207.618,180.951L210.818,306.818L210.818,360.151C186.285,348.418 160.685,337.751 131.885,327.085L120.151,330.285L96.685,465.751L100.951,475.351C138.285,482.818 173.485,490.285 210.818,500.951L210.818,503.085L207.618,631.085L215.085,638.551L346.285,635.351L676.951,635.351L662.018,665.218C772.951,666.285 778.285,668.418 778.285,685.485C778.285,695.085 776.151,696.151 755.885,696.151L428.418,692.951L302.551,688.685L296.151,697.218L299.351,801.751L299.351,868.951L128.685,868.951L120.151,876.418L115.885,995.885L122.285,1003.35L298.285,1003.35L296.151,1085.49L303.618,1089.75L427.351,1089.75L432.685,1084.42L430.551,1003.35C686.551,1003.35 795.351,1034.29 894.551,1112.15L994.818,1026.82C1001.22,1021.49 1003.35,1017.22 1003.35,1011.88C1003.35,1007.62 1000.15,1002.28 994.818,999.085C850.818,897.751 722.818,868.951 436.951,868.951L429.485,868.951L429.485,824.151L570.285,826.285L779.351,831.618C884.951,831.618 907.351,808.151 907.351,719.618L907.351,702.551C952.151,710.018 993.751,721.751 1035.35,738.818L1042.82,734.551L1082.29,631.085L1079.09,621.485C1026.82,601.218 960.685,587.351 889.218,579.885L881.751,586.285L875.351,608.685L873.218,606.551C863.618,598.018 852.951,591.618 836.951,587.351L834.818,503.085L834.818,243.885C868.951,243.885 897.751,243.885 925.485,244.951C897.751,253.485 866.818,265.218 843.351,278.018L839.085,286.551L858.285,347.351L867.885,350.551C892.418,337.751 924.418,327.085 963.885,315.351L967.085,306.818L944.685,246.018ZM342.018,314.285L342.018,500.951L304.685,500.951L304.685,314.285L342.018,314.285ZM432.685,314.285L471.085,314.285L471.085,500.951L432.685,500.951L432.685,314.285ZM884.951,564.951L892.418,570.285C937.218,560.685 991.618,550.018 1047.09,544.685L1051.35,536.151L1024.68,454.018L1017.22,448.685C974.551,454.018 920.151,464.685 871.085,479.618L865.751,487.085L884.951,564.951Z" clip-rule="nonzero"/>
            </clipPath>
            <g clip-path="url(#_clip1)">
                <rect x="0" y="0" width="1181.1" height="1181.1" style="fill:url(#_Linear2);stroke:black;stroke-width:4.35px;stroke-linecap:round;stroke-miterlimit:1.5;"/>
            </g>
        </g>
    </g>
    <defs>
        <linearGradient id="_Linear2" x1="0" y1="0" x2="1" y2="0" gradientUnits="userSpaceOnUse" gradientTransform="matrix(1181.1,0,0,1181.1,0,590.551)"><stop offset="0" style="stop-color:rgb(48,90,255);stop-opacity:1"/><stop offset="0.33" style="stop-color:rgb(209,68,255);stop-opacity:1"/><stop offset="0.66" style="stop-color:rgb(255,5,167);stop-opacity:1"/><stop offset="1" style="stop-color:rgb(255,95,0);stop-opacity:1"/></linearGradient>
    </defs>
</svg>
